<svg id="Layer_1" enable-background="new 0 0 256 256" height="512" viewBox="0 0 256 256" width="512" xmlns="http://www.w3.org/2000/svg"><g><g><path d="m188.117 210.684h5.253v-38.714l-4.177 3.225c-3.27 2.525-5.185 6.423-5.185 10.555v20.826c-.001 2.269 1.839 4.108 4.109 4.108z" fill="#f46275"/><path d="m237.702 210.684h-5.253v-38.714l4.177 3.225c3.27 2.525 5.185 6.423 5.185 10.555v20.826c.001 2.269-1.839 4.108-4.109 4.108z" fill="#f48875"/></g><path d="m220.703 159.714-7.794 6.702-7.794-6.703c-9.478 3.066-15.899 11.892-15.899 21.854v27.494c0 7.313 3.395 14.211 9.19 18.672 8.549 6.58 20.456 6.58 29.004 0 5.795-4.461 9.19-11.359 9.19-18.672v-27.494c.002-9.96-6.419-18.786-15.897-21.853z" fill="#63bce7"/><g><path d="m220.703 159.714-3.935 3.384c5.746 4.248 9.319 11.042 9.319 18.47v27.494c0 7.313-3.395 14.211-9.19 18.672-2.799 2.155-5.971 3.602-9.255 4.346 6.744 1.527 14.021.08 19.77-4.346 5.795-4.461 9.19-11.359 9.19-18.672v-27.494c0-9.961-6.421-18.787-15.899-21.854z" fill="#67dceb"/></g><path d="m212.91 187.46c-2.54 0-4.618-2.078-4.618-4.618v-21.744c0-2.54 2.078-4.618 4.618-4.618 2.54 0 4.618 2.078 4.618 4.618v21.744c-.001 2.54-2.079 4.618-4.618 4.618z" fill="#f8af23"/><path d="m133.056 165.801-3.471 3.014h-22.104-34.087-22.104l-3.471-3.014c-1.534-1.332-3.498-2.066-5.53-2.066h-26.101c-1.105 0-2 .895-2 2v64.935c0 1.105.895 2 2 2h9.135c1.185 0 2.356-.25 3.438-.732l7.904-3.528h36.729 34.088 36.729l7.904 3.528c1.082.483 2.253.732 3.438.732h9.135c1.105 0 2-.895 2-2v-64.935c0-1.105-.895-2-2-2h-26.101c-2.032 0-3.996.734-5.531 2.066z" fill="#63bce7"/><g><path d="m24.704 230.67v-64.935c0-1.105.895-2 2-2h-10.516c-1.104 0-2 .895-2 2v64.935c0 1.104.896 2 2 2h9.135c.312 0 .624-.02.933-.054-.888-.204-1.552-.996-1.552-1.946z" fill="#6377e7"/></g><path d="m53.582 128.755c-5.843 0-10.597-4.754-10.597-10.597v-95.985c0-5.843 4.754-10.597 10.597-10.597h148.837c5.843 0 10.597 4.754 10.597 10.597v95.985c0 5.843-4.754 10.597-10.597 10.597z" fill="#63bce7"/><path d="m206.494 108.852c0 2.242-1.834 4.076-4.076 4.076h-148.836c-2.242 0-4.076-1.834-4.076-4.076v-86.68c0-2.242 1.834-4.076 4.076-4.076h148.837c2.242 0 4.076 1.834 4.076 4.076v86.68z" fill="#9e9e9e"/><g><path d="m60.021 108.852v-86.679c0-2.242 1.834-4.076 4.076-4.076h-10.515c-2.242 0-4.076 1.834-4.076 4.076v86.679c0 2.242 1.834 4.076 4.076 4.076h10.515c-2.242 0-4.076-1.834-4.076-4.076z" fill="#707070"/></g><g><path d="m195.979 108.852v-86.679c0-2.242-1.834-4.076-4.076-4.076h10.515c2.242 0 4.076 1.834 4.076 4.076v86.679c0 2.242-1.834 4.076-4.076 4.076h-10.515c2.242 0 4.076-1.834 4.076-4.076z" fill="#cecece"/></g><path d="m98.384 145.938h59.232v7.132h-59.232z" fill="#f46275"/><path d="m106.807 128.755h42.387v17.183h-42.387z" fill="#f8af23"/><circle cx="128" cy="120.841" fill="#f8af23" r="3.49"/><g fill="#f46275"><g><g><path d="m23.898 182.976h9.653v9.653h-9.653z"/><path d="m40.551 182.976h9.653v9.653h-9.653z"/><path d="m57.204 182.976h9.653v9.653h-9.653z"/><path d="m73.857 182.976h9.653v9.653h-9.653z"/><path d="m90.51 182.976h9.653v9.653h-9.653z"/><path d="m107.163 182.976h9.653v9.653h-9.653z"/></g><g><path d="m23.898 200.649h9.653v9.653h-9.653z"/><path d="m40.551 200.649h9.653v9.653h-9.653z"/><path d="m57.204 200.649h9.653v9.653h-9.653z"/><path d="m73.857 200.649h9.653v9.653h-9.653z"/><path d="m90.51 200.649h9.653v9.653h-9.653z"/><path d="m107.163 200.649h9.653v9.653h-9.653z"/></g><path d="m23.898 216.297h92.917v6.364h-92.917z"/></g><g><g><path d="m129.744 182.976h9.653v9.653h-9.653z"/><path d="m147.325 182.976h9.653v9.653h-9.653z"/></g><g><path d="m129.744 198.203h9.653v9.653h-9.653z"/><path d="m147.325 198.203h9.653v9.653h-9.653z"/></g><g><path d="m129.744 213.429h9.653v9.653h-9.653z"/><path d="m147.325 213.429h9.653v9.653h-9.653z"/></g></g></g><g fill="#3f3679"><path d="m53.582 114.428h148.836c3.075 0 5.576-2.501 5.576-5.575v-86.68c0-3.074-2.501-5.575-5.576-5.575h-148.836c-3.075 0-5.576 2.501-5.576 5.575v86.68c0 3.074 2.501 5.575 5.576 5.575zm-2.576-92.255c0-1.42 1.155-2.575 2.576-2.575h148.836c1.421 0 2.576 1.155 2.576 2.575v86.68c0 1.42-1.155 2.575-2.576 2.575h-148.836c-1.421 0-2.576-1.155-2.576-2.575z"/><path d="m128 115.852c-2.751 0-4.989 2.238-4.989 4.99 0 2.751 2.238 4.989 4.989 4.989s4.989-2.238 4.989-4.989c0-2.752-2.238-4.99-4.989-4.99zm0 6.979c-1.097 0-1.989-.893-1.989-1.989 0-1.098.893-1.99 1.989-1.99s1.989.893 1.989 1.99c0 1.096-.892 1.989-1.989 1.989z"/><path d="m23.898 194.129h9.652c.828 0 1.5-.672 1.5-1.5v-9.653c0-.828-.672-1.5-1.5-1.5h-9.652c-.828 0-1.5.672-1.5 1.5v9.653c0 .828.672 1.5 1.5 1.5zm1.5-9.653h6.652v6.653h-6.652z"/><path d="m40.551 194.129h9.653c.828 0 1.5-.672 1.5-1.5v-9.653c0-.828-.672-1.5-1.5-1.5h-9.653c-.828 0-1.5.672-1.5 1.5v9.653c0 .828.672 1.5 1.5 1.5zm1.5-9.653h6.653v6.653h-6.653z"/><path d="m57.204 194.129h9.652c.828 0 1.5-.672 1.5-1.5v-9.653c0-.828-.672-1.5-1.5-1.5h-9.652c-.828 0-1.5.672-1.5 1.5v9.653c0 .828.672 1.5 1.5 1.5zm1.5-9.653h6.652v6.653h-6.652z"/><path d="m73.856 194.129h9.653c.828 0 1.5-.672 1.5-1.5v-9.653c0-.828-.672-1.5-1.5-1.5h-9.653c-.828 0-1.5.672-1.5 1.5v9.653c0 .828.672 1.5 1.5 1.5zm1.5-9.653h6.653v6.653h-6.653z"/><path d="m90.51 194.129h9.653c.828 0 1.5-.672 1.5-1.5v-9.653c0-.828-.672-1.5-1.5-1.5h-9.653c-.828 0-1.5.672-1.5 1.5v9.653c0 .828.672 1.5 1.5 1.5zm1.5-9.653h6.653v6.653h-6.653z"/><path d="m107.163 194.129h9.652c.828 0 1.5-.672 1.5-1.5v-9.653c0-.828-.672-1.5-1.5-1.5h-9.652c-.828 0-1.5.672-1.5 1.5v9.653c0 .828.672 1.5 1.5 1.5zm1.5-9.653h6.652v6.653h-6.652z"/><path d="m23.898 211.802h9.652c.828 0 1.5-.672 1.5-1.5v-9.652c0-.828-.672-1.5-1.5-1.5h-9.652c-.828 0-1.5.672-1.5 1.5v9.652c0 .828.672 1.5 1.5 1.5zm1.5-9.653h6.652v6.652h-6.652z"/><path d="m40.551 211.802h9.653c.828 0 1.5-.672 1.5-1.5v-9.652c0-.828-.672-1.5-1.5-1.5h-9.653c-.828 0-1.5.672-1.5 1.5v9.652c0 .828.672 1.5 1.5 1.5zm1.5-9.653h6.653v6.652h-6.653z"/><path d="m57.204 211.802h9.652c.828 0 1.5-.672 1.5-1.5v-9.652c0-.828-.672-1.5-1.5-1.5h-9.652c-.828 0-1.5.672-1.5 1.5v9.652c0 .828.672 1.5 1.5 1.5zm1.5-9.653h6.652v6.652h-6.652z"/><path d="m73.856 211.802h9.653c.828 0 1.5-.672 1.5-1.5v-9.652c0-.828-.672-1.5-1.5-1.5h-9.653c-.828 0-1.5.672-1.5 1.5v9.652c0 .828.672 1.5 1.5 1.5zm1.5-9.653h6.653v6.652h-6.653z"/><path d="m90.51 211.802h9.653c.828 0 1.5-.672 1.5-1.5v-9.652c0-.828-.672-1.5-1.5-1.5h-9.653c-.828 0-1.5.672-1.5 1.5v9.652c0 .828.672 1.5 1.5 1.5zm1.5-9.653h6.653v6.652h-6.653z"/><path d="m107.163 211.802h9.652c.828 0 1.5-.672 1.5-1.5v-9.652c0-.828-.672-1.5-1.5-1.5h-9.652c-.828 0-1.5.672-1.5 1.5v9.652c0 .828.672 1.5 1.5 1.5zm1.5-9.653h6.652v6.652h-6.652z"/><path d="m116.815 224.161c.828 0 1.5-.672 1.5-1.5v-6.364c0-.828-.672-1.5-1.5-1.5h-92.917c-.828 0-1.5.672-1.5 1.5v6.364c0 .828.672 1.5 1.5 1.5zm-91.417-6.364h89.917v3.364h-89.917z"/><path d="m129.743 194.129h9.653c.828 0 1.5-.672 1.5-1.5v-9.653c0-.828-.672-1.5-1.5-1.5h-9.653c-.828 0-1.5.672-1.5 1.5v9.653c0 .828.672 1.5 1.5 1.5zm1.5-9.653h6.653v6.653h-6.653z"/><path d="m147.324 194.129h9.653c.828 0 1.5-.672 1.5-1.5v-9.653c0-.828-.672-1.5-1.5-1.5h-9.653c-.828 0-1.5.672-1.5 1.5v9.653c0 .828.672 1.5 1.5 1.5zm1.5-9.653h6.653v6.653h-6.653z"/><path d="m129.743 209.355h9.653c.828 0 1.5-.672 1.5-1.5v-9.653c0-.828-.672-1.5-1.5-1.5h-9.653c-.828 0-1.5.672-1.5 1.5v9.653c0 .829.672 1.5 1.5 1.5zm1.5-9.653h6.653v6.653h-6.653z"/><path d="m147.324 209.355h9.653c.828 0 1.5-.672 1.5-1.5v-9.653c0-.828-.672-1.5-1.5-1.5h-9.653c-.828 0-1.5.672-1.5 1.5v9.653c0 .829.672 1.5 1.5 1.5zm1.5-9.653h6.653v6.653h-6.653z"/><path d="m129.743 224.582h9.653c.828 0 1.5-.672 1.5-1.5v-9.652c0-.828-.672-1.5-1.5-1.5h-9.653c-.828 0-1.5.672-1.5 1.5v9.652c0 .828.672 1.5 1.5 1.5zm1.5-9.652h6.653v6.652h-6.653z"/><path d="m147.324 224.582h9.653c.828 0 1.5-.672 1.5-1.5v-9.652c0-.828-.672-1.5-1.5-1.5h-9.653c-.828 0-1.5.672-1.5 1.5v9.652c0 .828.672 1.5 1.5 1.5zm1.5-9.652h6.653v6.652h-6.653z"/><path d="m227.752 211.691c.828 0 1.5-.672 1.5-1.5v-4.583c0-.828-.672-1.5-1.5-1.5s-1.5.672-1.5 1.5v4.583c0 .829.672 1.5 1.5 1.5z"/><path d="m198.277 204.108c-.828 0-1.5.672-1.5 1.5v4.583c0 .828.672 1.5 1.5 1.5s1.5-.672 1.5-1.5v-4.583c0-.828-.672-1.5-1.5-1.5z"/><path d="m25.89 242.924h-18.5c-.828 0-1.5.672-1.5 1.5s.672 1.5 1.5 1.5h18.5c.828 0 1.5-.672 1.5-1.5s-.672-1.5-1.5-1.5z"/><path d="m248.61 242.924h-18.5c-.828 0-1.5.672-1.5 1.5s.672 1.5 1.5 1.5h18.5c.828 0 1.5-.672 1.5-1.5s-.672-1.5-1.5-1.5z"/><path d="m215.337 242.924h-174.674c-.828 0-1.5.672-1.5 1.5s.672 1.5 1.5 1.5h174.674c.828 0 1.5-.672 1.5-1.5s-.672-1.5-1.5-1.5z"/><path d="m239.167 232.669c0 .828.672 1.5 1.5 1.5h7.943c.828 0 1.5-.672 1.5-1.5s-.672-1.5-1.5-1.5h-7.943c-.828 0-1.5.672-1.5 1.5z"/><path d="m7.39 234.169s8.796.001 8.799.001c0 0 9.147-.001 9.154-.001 0 0 130.204.001 130.211.001 0 0 9.141-.001 9.144-.001h65.413c.828 0 1.5-.672 1.5-1.5s-.672-1.5-1.5-1.5h-5.262c1.204-.646 2.369-1.392 3.479-2.246 5.293-4.074 8.736-10.178 9.572-16.748 3.001-.105 5.412-2.573 5.412-5.599v-20.826c0-4.563-2.156-8.953-5.77-11.742l-.872-.673c-2.497-7.012-8.107-12.654-15.505-15.047-.498-.163-1.043-.052-1.44.29l-.945.812c-.598-2.053-2.245-3.658-4.32-4.203.514-6.674 6.097-11.95 12.9-11.95 8.796 0 15.951-7.155 15.951-15.951v-42.67c0-8.795-7.155-15.95-15.951-15.95h-12.846v-46.493c0-6.67-5.427-12.097-12.097-12.097h-148.835c-6.67 0-12.097 5.427-12.097 12.097v46.493h-14.217c-8.039 0-14.579 6.54-14.579 14.579v59.411c0 8.039 6.54 14.58 14.579 14.58h50.091c5.875 0 10.731 4.402 11.471 10.079h-36.979l-3.048-2.646c-1.806-1.57-4.119-2.435-6.514-2.435h-26.101c-1.93 0-3.5 1.57-3.5 3.5v64.935c0 .171.027.334.051.499h-5.349c-.828 0-1.5.672-1.5 1.5s.672 1.501 1.5 1.501zm26.773-3 2.822-1.26h106.907l2.822 1.26zm206.149-45.42v20.826c0 1.302-.962 2.376-2.211 2.569 0-.027.002-.054.002-.082v-27.494c0-.99-.078-1.964-.193-2.928 1.526 2.034 2.402 4.532 2.402 7.109zm-19.284-24.337c1.898.695 3.643 1.649 5.224 2.794v35.297c0 .828.672 1.5 1.5 1.5s1.5-.672 1.5-1.5v-32.68c3.675 3.889 5.851 9.11 5.851 14.744v27.494c0 6.8-3.217 13.335-8.605 17.483-3.553 2.734-7.733 4.248-11.982 4.553v-36.525c0-.828-.672-1.5-1.5-1.5s-1.5.672-1.5 1.5v36.533c-4.322-.27-8.581-1.782-12.192-4.562-5.389-4.148-8.605-10.684-8.605-17.483v-27.494c0-5.74 2.26-11.047 6.061-14.958v32.893c0 .828.672 1.5 1.5 1.5s1.5-.672 1.5-1.5v-35.447c1.526-1.078 3.2-1.98 5.014-2.645l1.937 1.667c.02.018.043.029.064.045v19.718c0 3.374 2.744 6.118 6.117 6.118 3.374 0 6.118-2.744 6.118-6.118v-19.729c.051-.034.103-.064.15-.105zm-33.309 47.733c-1.249-.193-2.211-1.267-2.211-2.569v-20.826c0-2.578.876-5.076 2.402-7.11-.115.965-.193 1.939-.193 2.929v27.494c0 .027.002.054.002.082zm28.308-48.047v21.744c0 1.72-1.398 3.118-3.118 3.118-1.719 0-3.117-1.398-3.117-3.118v-21.744c0-1.72 1.398-3.118 3.117-3.118 1.72-.001 3.118 1.398 3.118 3.118zm-171.542-138.925c0-5.016 4.081-9.097 9.097-9.097h148.836c5.016 0 9.097 4.081 9.097 9.097v95.985c0 5.016-4.081 9.097-9.097 9.097h-53.225-42.387-53.224c-5.016 0-9.097-4.081-9.097-9.097zm62.322 125.265h42.387 6.923v4.133h-56.233v-4.133zm40.886-3h-39.387v-14.183h39.387zm-70.335 9.798h-50.09c-6.385 0-11.579-5.194-11.579-11.58v-59.411c0-6.385 5.194-11.579 11.579-11.579h14.218v46.492c0 6.67 5.427 12.097 12.097 12.097h51.725v14.183h-6.923c-.828 0-1.5.672-1.5 1.5v7.133c0 .828.672 1.5 1.5 1.5h59.232c.828 0 1.5-.672 1.5-1.5v-7.133c0-.828-.672-1.5-1.5-1.5h-6.923v-14.183h51.725c6.67 0 12.097-5.427 12.097-12.097v-46.492h12.846c7.142 0 12.951 5.81 12.951 12.95v42.669c0 7.142-5.81 12.951-12.951 12.951-8.449 0-15.365 6.607-15.899 14.924-2.123.518-3.813 2.142-4.422 4.229l-.945-.812c-.396-.34-.941-.452-1.44-.289-7.398 2.393-13.009 8.034-15.505 15.047l-.874.673c-3.611 2.79-5.768 7.18-5.768 11.742v20.826c0 3.027 2.411 5.495 5.412 5.599.836 6.57 4.279 12.674 9.572 16.748 1.11.854 2.275 1.601 3.479 2.246h-32.834c.024-.165.051-.328.051-.499v-64.935c0-1.93-1.57-3.5-3.5-3.5h-26.101c-2.394 0-4.707.864-6.514 2.434l-3.048 2.646h-37.166c-.753-7.336-6.969-13.079-14.502-13.079zm-30.522 12.699 3.471 3.014c.272.236.622.367.983.367h78.296c.361 0 .711-.131.983-.367l3.471-3.014s0 0 0-.001c1.261-1.095 2.876-1.698 4.547-1.698h4.746c-.742 5.91-5.788 10.501-11.896 10.501h-81.999c-6.108 0-11.155-4.591-11.897-10.501h4.747c1.672-.001 3.287.603 4.548 1.699zm-31.148 63.735v-64.935c0-.275.225-.5.5-.5h18.325c.755 7.57 7.16 13.501 14.925 13.501h81.999c7.765 0 14.169-5.931 14.924-13.501h18.326c.275 0 .5.225.5.5v64.935c0 .274-.222.496-.495.499h-9.158c-.973-.003-1.918-.205-2.808-.602l-7.903-3.528c-.192-.086-.4-.13-.611-.13h-107.547c-.211 0-.419.044-.611.13l-7.904 3.528c-.89.398-1.834.599-2.807.602h-9.158c-.274-.003-.497-.225-.497-.499z"/></g></g></svg>