<svg id="Icons" enable-background="new 0 0 512 512" height="512" viewBox="0 0 512 512" width="512" xmlns="http://www.w3.org/2000/svg"><g><circle cx="256" cy="256" fill="#15be79" r="255.999"/><g><g><g><path d="m197.16 331.07v33h46.27c35 0 66.62-14.26 84.6-38.16l-9.52-7.16-16.86-12.67c-11.6 15.42-33.9 24.99-58.22 24.99z" fill="#6052a3"/></g><g><path d="m197.16 331.07v22.2h39.68c33.18 0 63.33-12.82 81.67-34.52l-16.86-12.67c-11.6 15.42-33.9 24.99-58.22 24.99z" fill="#7063ce"/></g></g><g><g><path d="m297.963 303.666v33h-46.27c-35 0-66.62-14.26-84.6-38.16l9.52-7.16 16.86-12.67c11.6 15.42 33.9 24.99 58.22 24.99z" fill="#efb732"/></g><g><path d="m297.963 303.666v22.2h-39.68c-33.18 0-63.33-12.82-81.67-34.52l16.86-12.67c11.6 15.42 33.9 24.99 58.22 24.99z" fill="#fbdb58"/></g></g><g><g><path d="m100.78 434.139v25.44c9.13 6.98 18.76 13.36 28.8 19.07 27.87 15.86 59.01 26.64 92.16 31.07v-75.579h-120.96z" fill="#3e4e60"/><path d="m129.58 434.139v44.51c27.87 15.86 59.01 26.64 92.16 31.07v-75.579h-92.16z" fill="#3f5d77"/></g><g><g><path d="m100.786 434.136v-113.879c0-24.86 20.14-45.02 45.01-45.02h30.94c24.87 0 45.01 20.16 45.01 45.02v113.879z" fill="#efb732"/><path d="m221.746 434.136v-113.879c0-24.86-20.14-45.02-45.01-45.02h-2.13c-24.87 0-45.02 20.16-45.02 45.02v113.879z" fill="#fbdb58"/></g><g><g><path d="m112.893 302.603c-4.854-6.633-14.231-7.888-20.695-2.81-31.701 24.906-46.035 44.415-46.035 62.7.76 35.11 43.62 44.2 81.01 52.99l2.51-10.94 4.87-21.22c-15.39-3.54-31.37-7.38-42.71-12.13-3.404-1.429-5.903-2.739-7.733-3.874-3.557-2.206-4.718-6.843-2.604-10.455 3.522-6.019 12.413-16.833 34.801-33.99 4.061-3.112 4.907-8.895 1.886-13.024z" fill="#efb732"/><path d="m118.193 309.849c-2.984-4.079-8.672-5.081-12.852-2.24-31.27 21.249-45.428 37.942-45.428 53.584.69 27.24 35.53 36.29 69.77 43.35l4.87-21.22c-15.39-3.54-31.37-7.38-42.71-12.13-3.404-1.429-5.903-2.739-7.733-3.874-3.557-2.206-4.718-6.843-2.604-10.455 3.522-6.019 12.413-16.833 34.801-33.99 4.06-3.114 4.906-8.896 1.886-13.025z" fill="#fbdb58"/></g><g><path d="m90.215 407.749 7.95 30.06c.69 2.59 3.34 4.14 5.93 3.46l2.49-.66c2.59-.69 4.13-3.35 3.45-5.93l1.61 6.12c.69 2.58 3.34 4.13 5.93 3.45l2.49-.66c2.59-.69 4.14-3.34 3.45-5.93l1.34 5.05c.68 2.58 3.35 4.13 5.93 3.45l2.48-.66c2.59-.68 4.13-3.33 3.46-5.93l-1.15-4.33c.68 2.58 3.33 4.13 5.93 3.45l2.49-.66c2.58-.68 4.12-3.33 3.45-5.93l-2.9-10.95-.26-.98c.97-.25 1.87-.63 2.69-1.12.6-.35 1.16-.77 1.66-1.23 2.88-2.61 4.14-6.78 2.81-10.75l-1.67-5.01c-1.31-3.94-3.33-7.58-5.9-10.75-2.58-3.17-5.73-5.87-9.32-7.96v-.03c-3.64-2.11-7.98-2.69-12.04-1.62l-20.25 5.35c-4.31 1.13-7.8 3.85-10.01 7.35-.1.16-.2.33-.3.5-2.17 3.74-2.93 8.32-1.74 12.85z" fill="#f5b890"/><g><g><path d="m133.845 418.631.133.504 4.08 15.443c.684 2.59 3.338 4.134 5.928 3.45l-2.488.657c-2.59.684-5.244-.86-5.928-3.45l-4.871-18.435c.001.001 2.783.457 3.146 1.831z" fill="#d48d77"/></g><g><path d="m109.924 424.189.133.504 4.08 15.443c.684 2.59 3.338 4.134 5.928 3.45l-2.488.657c-2.59.684-5.244-.86-5.928-3.45l-4.871-18.435c.001 0 2.783.457 3.146 1.831z" fill="#d48d77"/></g><g><path d="m122.662 424.354.133.504 4.545 17.199c.684 2.59 3.338 4.134 5.928 3.45l-2.488.657c-2.59.684-5.244-.86-5.928-3.45l-5.335-20.192c0 .001 2.782.458 3.145 1.832z" fill="#d48d77"/></g><g fill="#d48d77"><path d="m92.091 394.668c-2.301 3.792-3.107 8.48-1.884 13.108l7.943 30.063c.684 2.59 3.338 4.135 5.928 3.45l2.488-.657c-2.59.684-5.244-.86-5.928-3.45l-6.231-23.102c-1.705-6.325-2.485-12.864-2.316-19.412z"/><path d="m140.175 404.569 4.11 15.6c.97-.25 1.87-.63 2.69-1.12l-2.46-8.59c-.7-2.44-2.25-4.52-4.34-5.89z"/></g></g></g></g><g><path d="m181.252 256.338v21.707c0 11.04-8.954 19.98-19.994 19.98-3.703 0-7.171-1.009-10.142-2.763-5.886-3.468-9.838-9.879-9.838-17.216v-21.707h39.974z" fill="#f5b890"/><path d="m141.279 256.338v21.707c0 7.337 3.952 13.748 9.838 17.216v-23.199c6.95 2.902 14.591 4.504 22.605 4.504 2.556 0 5.071-.166 7.531-.47v-19.758z" fill="#d48d77"/></g><g><g><g><path d="m105.011 191.145h9.912v-31.015h-9.912c-8.564 0-15.507 6.943-15.507 15.507 0 8.565 6.942 15.508 15.507 15.508z" fill="#d48d77"/><path d="m104.511 182.292h10.412v-13.309h-10.412c-3.675 0-6.654 2.979-6.654 6.654-.001 3.675 2.979 6.655 6.654 6.655z" fill="#c17e62"/></g><g><path d="m236.867 160.13h-4.341v31.015h4.341c8.564 0 15.507-6.943 15.507-15.507 0-8.565-6.943-15.508-15.507-15.508z" fill="#d48d77"/><path d="m237.367 168.983h-4.841v13.309h4.841c3.675 0 6.654-2.979 6.654-6.654 0-3.676-2.979-6.655-6.654-6.655z" fill="#c17e62"/></g></g><path d="m221.106 160.13v10c12.671 0 22.942-10.272 22.942-22.942v-46.626h-22.942z" fill="#3e4e60"/><g><path d="m232.528 125.614v81.687c0 16.235-6.577 30.937-17.216 41.576-7.682 7.668-17.465 13.223-28.408 15.738-4.242.967-8.65 1.478-13.182 1.478-32.47 0-58.806-26.322-58.806-58.792v-81.687c0-17.796 14.439-32.221 32.235-32.221h53.155c3.122 0 6.135.442 8.995 1.285 13.417 3.882 23.227 16.262 23.227 30.936z" fill="#d48d77"/><path d="m232.528 125.614v81.687c0 16.235-6.577 30.937-17.216 41.576-7.682 7.668-17.465 13.223-28.408 15.738-26.142-5.983-45.624-29.375-45.624-57.313v-31.254c0-40.664 29.348-74.46 68.022-81.369 13.416 3.881 23.226 16.261 23.226 30.935z" fill="#f5b890"/><g fill="#eea47d"><path d="m190.351 179.744h-11.988c-4.924 0-8.915 3.991-8.915 8.915 0 4.924 3.991 8.915 8.915 8.915h11.988c4.924 0 8.915-3.991 8.915-8.915 0-4.923-3.991-8.915-8.915-8.915z"/><path d="m173.724 93.391h15.039v92.405h-15.039z"/></g><g fill="#334353"><path d="m157.766 144.873c-4.5 0-8.147 3.648-8.147 8.147v14.22c0 4.499 3.648 8.147 8.147 8.147 4.499 0 8.147-3.648 8.147-8.147v-14.22c0-4.5-3.648-8.147-8.147-8.147z"/><path d="m204.722 144.873c-4.5 0-8.147 3.648-8.147 8.147v14.22c0 4.499 3.648 8.147 8.147 8.147 4.499 0 8.147-3.648 8.147-8.147v-14.22c0-4.5-3.648-8.147-8.147-8.147z"/></g><g><path d="m175.853 230.431c-14.114 0-25.596-11.482-25.596-25.595 0-2.671 2.165-4.836 4.836-4.836s4.836 2.165 4.836 4.836c0 8.78 7.143 15.923 15.924 15.923 2.671 0 4.836 2.165 4.836 4.836s-2.165 4.836-4.836 4.836z" fill="#c17e62"/></g></g><g><path d="m114.923 191.145h-9.912c-1.733 0-3.394-.297-4.95-.821v4.134c0 8.224 6.667 14.89 14.89 14.89z" fill="#3e4e60"/><path d="m114.922 160.093h-9.911c-1.65 0-3.209.327-4.7.804l-.249.013v-40.576c0-18.828 15.263-34.091 34.091-34.091h39.57v8.515c0 11.112-9.008 20.121-20.121 20.121-6.805 0-12.322 5.517-12.322 12.322v7.233c0 14.171-11.488 25.658-25.659 25.658l-.698.037v-.036z" fill="#3e4e60"/><path d="m235.73 114.879h-84.552c-7.908 0-14.318-6.41-14.318-14.318 0-7.908 6.41-14.318 14.318-14.318h84.552c7.908 0 14.318 6.41 14.318 14.318 0 7.908-6.41 14.318-14.318 14.318z" fill="#3f5d77"/></g></g></g><g><g><g><path d="m87.031 131.926v32.679c0 3.677 2.977 6.646 6.646 6.646 3.668 0 6.646-2.968 6.646-6.646v-32.679c0-18.519 7.647-35.292 19.946-47.307 11.944-11.705 28.292-18.918 46.279-18.918 5.13 0 10.261.594 15.24 1.763 11.696 2.756 22.426 8.675 31.065 17.137.177.159.346.328.523.505 12.503 12.502 19.396 29.134 19.396 46.82v32.679c0 3.677 2.977 6.646 6.646 6.646 3.668 0 6.646-2.968 6.646-6.646v-32.679c0-19.981-7.328-38.837-20.708-53.51-.842-.922-1.701-1.825-2.587-2.711-10.473-10.474-23.587-17.801-37.942-21.186-5.981-1.4-12.13-2.109-18.28-2.109-23.259 0-44.224 10.039-58.782 26.024-12.875 14.124-20.734 32.909-20.734 53.492z" fill="#efb732"/></g><path d="m107.765 78.435c4.023 2.295 8.196 4.368 12.503 6.185 11.944-11.705 28.292-18.918 46.279-18.918 5.13 0 10.261.594 15.24 1.763 11.696 2.756 22.426 8.675 31.065 17.137 4.306-1.817 8.48-3.881 12.503-6.185-.842-.922-1.701-1.825-2.587-2.711-10.473-10.474-23.587-17.801-37.942-21.186-5.981-1.4-12.13-2.109-18.28-2.109-23.259 0-44.223 10.039-58.781 26.024z" fill="#fbdb58"/></g><g><g><path d="m66.642 184.834c0 5.166 1.276 10.031 3.535 14.301 5.139 9.738 15.364 16.375 27.14 16.375h8.604c5.458 0 9.889-4.43 9.889-9.889v-41.574c0-5.458-4.43-9.888-9.889-9.888h-8.604c-3.606 0-7.071.62-10.287 1.772-4.333 1.533-8.214 4.023-11.404 7.212-5.555 5.555-8.984 13.22-8.984 21.691z" fill="#efb732"/><path d="m66.642 184.834c0 5.166 1.276 10.031 3.535 14.301h6.973c5.458 0 9.88-4.421 9.88-9.88v-33.325c-4.333 1.533-8.214 4.023-11.404 7.212-5.555 5.556-8.984 13.221-8.984 21.692z" fill="#fbdb58"/></g><g><path d="m100.322 154.158v61.351h5.6c5.458 0 9.889-4.43 9.889-9.889v-41.574c0-5.458-4.43-9.888-9.889-9.888z" fill="#334353"/><path d="m100.322 154.158v37.029h5.6c5.458 0 9.889-4.43 9.889-9.889v-17.252c0-5.458-4.43-9.888-9.889-9.888z" fill="#3e4e60"/></g></g><g><g><path d="m232.772 154.158h3.004c3.606 0 7.071.62 10.287 1.772 4.333 1.533 8.214 4.023 11.404 7.212 5.556 5.556 8.985 13.221 8.985 21.691 0 5.166-1.276 10.031-3.535 14.301-5.139 9.738-15.364 16.375-27.14 16.375h-3.004v-61.351z" fill="#efb732"/><path d="m266.451 184.834c0 5.166-1.276 10.031-3.535 14.301h-6.973c-5.458 0-9.88-4.421-9.88-9.88v-33.325c4.333 1.533 8.214 4.023 11.404 7.212 5.555 5.556 8.984 13.221 8.984 21.692z" fill="#fbdb58"/></g></g><g><g><path d="m196.673 236.493c0 .416.062.824.168 1.205.523 1.861 2.233 3.225 4.262 3.225 22.869 0 35.363-9.862 43.107-34.052.744-2.33-.54-4.82-2.871-5.564-.053-.018-.098-.027-.151-.035-2.286-.665-4.687.62-5.423 2.897-6.592 20.592-15.666 27.893-34.663 27.893-2.444.001-4.429 1.985-4.429 4.431z" fill="#3e4e60"/><path d="m196.673 236.493c0 .416.062.824.168 1.205.381.106.789.168 1.205.168 22.878 0 35.363-9.862 43.107-34.043.275-.86.275-1.746.035-2.552-2.286-.665-4.687.62-5.423 2.897-6.592 20.592-15.666 27.893-34.663 27.893-2.444.002-4.429 1.986-4.429 4.432z" fill="#3f5d77"/></g><g><path d="m182.275 233.711v5.565c0 3.943 3.199 7.141 7.142 7.141h14.514c3.943 0 7.142-3.199 7.142-7.141v-5.565c0-3.943-3.199-7.142-7.142-7.142h-14.514c-3.944 0-7.142 3.198-7.142 7.142z" fill="#334353"/><path d="m182.275 233.711v1.932c0 3.943 3.199 7.142 7.142 7.142h14.514c3.943 0 7.142-3.199 7.142-7.142v-1.932c0-3.943-3.199-7.142-7.142-7.142h-14.514c-3.944 0-7.142 3.198-7.142 7.142z" fill="#3e4e60"/><path d="m192.187 229.152h9.759c2.053 0 3.718 1.664 3.718 3.718 0 2.053-1.664 3.718-3.718 3.718h-9.759c-2.053 0-3.718-1.664-3.718-3.718 0-2.053 1.664-3.718 3.718-3.718z" fill="#3f5d77"/></g></g></g></g><g><g><path d="m290.26 434.139v75.579c33.15-4.43 64.29-15.21 92.16-31.07 10.04-5.71 19.67-12.09 28.8-19.07v-25.44h-120.96z" fill="#3e4e60"/><path d="m290.26 434.139v75.579c33.15-4.43 64.29-15.21 92.16-31.07v-44.51h-92.16z" fill="#3f5d77"/></g><g><g><path d="m411.214 434.136v-113.879c0-24.86-20.14-45.02-45.01-45.02h-30.94c-24.87 0-45.01 20.16-45.01 45.02v113.879z" fill="#6052a3"/><path d="m290.254 434.136v-113.879c0-24.86 20.14-45.02 45.01-45.02h2.13c24.87 0 45.02 20.16 45.02 45.02v113.879z" fill="#7063ce"/></g><g><g><path d="m399.107 302.603c4.854-6.633 14.231-7.888 20.695-2.81 31.701 24.906 46.035 44.415 46.035 62.7-.76 35.11-43.62 44.2-81.01 52.99l-2.51-10.94-4.87-21.22c15.39-3.54 31.37-7.38 42.71-12.13 3.404-1.429 5.903-2.739 7.733-3.874 3.557-2.206 4.718-6.843 2.604-10.455-3.522-6.019-12.413-16.833-34.801-33.99-4.061-3.112-4.907-8.895-1.886-13.024z" fill="#6052a3"/><path d="m393.807 309.849c2.984-4.079 8.672-5.081 12.852-2.24 31.27 21.249 45.428 37.942 45.428 53.584-.69 27.24-35.53 36.29-69.77 43.35l-4.87-21.22c15.39-3.54 31.37-7.38 42.71-12.13 3.404-1.429 5.903-2.739 7.733-3.874 3.557-2.206 4.718-6.843 2.604-10.455-3.522-6.019-12.413-16.833-34.801-33.99-4.06-3.114-4.906-8.896-1.886-13.025z" fill="#7063ce"/></g><g><path d="m420.045 394.899c-.1-.17-.2-.34-.3-.5-2.21-3.5-5.7-6.22-10.01-7.35l-20.25-5.35c-4.06-1.07-8.4-.49-12.04 1.62v.03c-3.59 2.09-6.74 4.79-9.32 7.96-2.57 3.17-4.59 6.81-5.9 10.75l-1.67 5.01c-1.33 3.97-.07 8.14 2.81 10.75.5.46 1.06.88 1.66 1.23.82.49 1.72.87 2.69 1.12l-.26.98-2.9 10.95c-.67 2.6.87 5.25 3.45 5.93l2.49.66c2.6.68 5.25-.87 5.93-3.45l-1.15 4.33c-.67 2.6.87 5.25 3.46 5.93l2.48.66c2.58.68 5.25-.87 5.93-3.45l1.34-5.05c-.69 2.59.86 5.24 3.45 5.93l2.49.66c2.59.68 5.24-.87 5.93-3.45l1.61-6.12c-.68 2.58.86 5.24 3.45 5.93l2.49.66c2.59.68 5.24-.87 5.93-3.46l7.95-30.06c1.19-4.53.43-9.11-1.74-12.85z" fill="#9b5b42"/><g><g><g><path d="m378.155 418.631-.133.504-4.081 15.443c-.684 2.59-3.338 4.134-5.928 3.45l2.488.657c2.59.684 5.244-.86 5.928-3.45l4.871-18.435c0 .001-2.782.457-3.145 1.831z" fill="#8e4e3f"/></g><g><path d="m402.076 424.189-.133.504-4.08 15.443c-.684 2.59-3.338 4.134-5.928 3.45l2.488.657c2.59.684 5.244-.86 5.928-3.45l4.871-18.435c-.001 0-2.783.457-3.146 1.831z" fill="#8e4e3f"/></g><g><path d="m389.338 424.354-.133.504-4.545 17.199c-.684 2.59-3.338 4.134-5.928 3.45l2.488.657c2.59.684 5.244-.86 5.928-3.45l5.335-20.192c0 .001-2.782.458-3.145 1.832z" fill="#8e4e3f"/></g><g fill="#8e4e3f"><path d="m419.909 394.668c2.301 3.792 3.107 8.48 1.884 13.108l-7.943 30.063c-.684 2.59-3.338 4.135-5.928 3.45l-2.488-.657c2.59.684 5.244-.86 5.928-3.45l6.231-23.102c1.705-6.325 2.485-12.864 2.316-19.412z"/><path d="m371.825 404.569-4.11 15.6c-.97-.25-1.87-.63-2.69-1.12l2.46-8.59c.7-2.44 2.25-4.52 4.34-5.89z"/></g></g></g></g></g><g><path d="m330.748 256.338v21.707c0 11.04 8.953 19.98 19.994 19.98 3.703 0 7.171-1.009 10.142-2.763 5.886-3.468 9.838-9.879 9.838-17.216v-21.707h-39.974z" fill="#9b5b42"/><path d="m370.721 256.338v21.707c0 7.337-3.952 13.748-9.838 17.216v-23.199c-6.95 2.902-14.591 4.504-22.605 4.504-2.556 0-5.071-.166-7.531-.47v-19.758z" fill="#8e4e3f"/></g><g><g><g><path d="m406.989 191.145h-9.912v-31.015h9.912c8.564 0 15.507 6.943 15.507 15.507 0 8.565-6.942 15.508-15.507 15.508z" fill="#8e4e3f"/><path d="m407.489 182.292h-10.412v-13.309h10.412c3.675 0 6.654 2.979 6.654 6.654.001 3.675-2.979 6.655-6.654 6.655z" fill="#723e33"/></g><g><path d="m275.133 160.13h4.341v31.015h-4.341c-8.564 0-15.507-6.943-15.507-15.507 0-8.565 6.943-15.508 15.507-15.508z" fill="#8e4e3f"/><path d="m274.633 168.983h4.841v13.309h-4.841c-3.675 0-6.654-2.979-6.654-6.654 0-3.676 2.979-6.655 6.654-6.655z" fill="#723e33"/></g></g><g><path d="m279.472 125.614v81.687c0 16.235 6.577 30.937 17.216 41.576 7.682 7.668 17.465 13.223 28.408 15.738 4.242.967 8.65 1.478 13.182 1.478 32.47 0 58.806-26.322 58.806-58.792v-81.687c0-17.796-14.439-32.221-32.235-32.221h-53.155c-3.122 0-6.135.442-8.995 1.285-13.417 3.882-23.227 16.262-23.227 30.936z" fill="#8e4e3f"/><path d="m279.472 125.614v81.687c0 16.235 6.577 30.937 17.216 41.576 7.682 7.668 17.465 13.223 28.408 15.738 26.142-5.983 45.624-29.375 45.624-57.313v-31.254c0-40.664-29.348-74.46-68.022-81.369-13.416 3.881-23.226 16.261-23.226 30.935z" fill="#9b5b42"/><g><g fill="#8e4e3f"><path d="m321.649 179.744h11.988c4.924 0 8.915 3.991 8.915 8.915 0 4.924-3.991 8.915-8.915 8.915h-11.988c-4.924 0-8.915-3.991-8.915-8.915 0-4.923 3.991-8.915 8.915-8.915z"/><path d="m330.756 129.188c4.153 0 7.52 3.367 7.52 7.519v49.088h-15.039v-49.088c0-4.152 3.366-7.519 7.519-7.519z"/></g></g><g fill="#334353"><path d="m354.234 144.873c4.5 0 8.147 3.648 8.147 8.147v14.22c0 4.499-3.648 8.147-8.147 8.147-4.499 0-8.147-3.648-8.147-8.147v-14.22c0-4.5 3.648-8.147 8.147-8.147z"/><path d="m307.278 144.873c4.5 0 8.147 3.648 8.147 8.147v14.22c0 4.499-3.648 8.147-8.147 8.147-4.499 0-8.147-3.648-8.147-8.147v-14.22c0-4.5 3.648-8.147 8.147-8.147z"/></g><g><path d="m336.147 230.431c14.114 0 25.596-11.482 25.596-25.595 0-2.671-2.165-4.836-4.836-4.836s-4.836 2.165-4.836 4.836c0 8.78-7.143 15.923-15.924 15.923-2.671 0-4.836 2.165-4.836 4.836s2.165 4.836 4.836 4.836z" fill="#723e33"/></g></g></g></g><g><g><g><path d="m425.94 131.876v32.772c0 3.688-2.986 6.665-6.665 6.665s-6.665-2.977-6.665-6.665v-32.772c0-18.572-7.669-35.394-20.003-47.443-11.979-11.739-28.373-18.972-46.412-18.972-5.145 0-10.29.595-15.284 1.768-11.73 2.764-22.491 8.7-31.155 17.186-.178.16-.347.328-.524.506-12.538 12.538-19.452 29.218-19.452 46.954v32.772c0 3.688-2.986 6.665-6.665 6.665s-6.665-2.977-6.665-6.665v-32.772c0-20.038 7.349-38.948 20.767-53.663.844-.924 1.706-1.831 2.595-2.719 10.504-10.504 23.655-17.853 38.051-21.247 5.998-1.404 12.165-2.115 18.332-2.115 23.326 0 44.351 10.068 58.951 26.099 12.912 14.165 20.794 33.004 20.794 53.646z" fill="#6052a3"/></g><path d="m405.146 78.231c-4.034 2.301-8.22 4.381-12.538 6.203-11.979-11.739-28.373-18.972-46.412-18.972-5.145 0-10.29.595-15.284 1.768-11.73 2.764-22.491 8.7-31.155 17.186-4.319-1.822-8.504-3.892-12.538-6.203.844-.924 1.706-1.831 2.595-2.719 10.504-10.504 23.655-17.853 38.051-21.247 5.998-1.404 12.165-2.115 18.332-2.115 23.325 0 44.349 10.068 58.949 26.099z" fill="#7063ce"/></g><g><g><path d="m446.387 184.935c0 5.181-1.28 10.059-3.546 14.342-5.154 9.766-15.408 16.422-27.218 16.422h-8.628c-5.474 0-9.917-4.443-9.917-9.917v-41.694c0-5.474 4.443-9.917 9.917-9.917h8.628c3.617 0 7.091.622 10.317 1.777 4.345 1.537 8.237 4.034 11.436 7.233 5.572 5.573 9.011 13.259 9.011 21.754z" fill="#6052a3"/><path d="m446.387 184.935c0 5.181-1.28 10.059-3.546 14.342h-6.993c-5.474 0-9.908-4.434-9.908-9.908v-33.421c4.345 1.537 8.237 4.034 11.436 7.233 5.572 5.573 9.011 13.259 9.011 21.754z" fill="#7063ce"/></g><g><path d="m412.611 154.172v61.527h-5.616c-5.474 0-9.917-4.443-9.917-9.917v-41.694c0-5.474 4.443-9.917 9.917-9.917h5.616z" fill="#334353"/><path d="m412.611 154.172v37.135h-5.616c-5.474 0-9.917-4.443-9.917-9.917v-17.302c0-5.474 4.443-9.917 9.917-9.917h5.616z" fill="#3e4e60"/></g></g><g><g><path d="m279.78 154.172h-3.012c-3.617 0-7.091.622-10.317 1.777-4.345 1.537-8.237 4.034-11.436 7.233-5.572 5.572-9.01 13.259-9.01 21.753 0 5.181 1.28 10.059 3.546 14.342 5.154 9.766 15.408 16.422 27.218 16.422h3.012v-61.527z" fill="#6052a3"/><path d="m246.004 184.935c0 5.181 1.28 10.059 3.546 14.342h6.993c5.474 0 9.908-4.434 9.908-9.908v-33.421c-4.345 1.537-8.237 4.034-11.436 7.233-5.572 5.573-9.011 13.259-9.011 21.754z" fill="#7063ce"/></g></g><g><g><path d="m315.983 236.743c0 .417-.062.827-.169 1.208-.524 1.866-2.239 3.235-4.274 3.235-22.935 0-35.465-9.89-43.231-34.15-.747-2.337.542-4.834 2.879-5.58.053-.018.098-.027.151-.036 2.293-.666 4.701.622 5.438 2.906 6.611 20.651 15.711 27.974 34.763 27.974 2.452 0 4.443 1.99 4.443 4.443z" fill="#3e4e60"/><path d="m315.983 236.743c0 .417-.062.827-.169 1.208-.382.107-.791.169-1.208.169-22.944 0-35.465-9.89-43.231-34.141-.275-.862-.275-1.751-.036-2.559 2.293-.666 4.701.622 5.438 2.906 6.611 20.651 15.711 27.974 34.763 27.974 2.452 0 4.443 1.99 4.443 4.443z" fill="#3f5d77"/></g><g><path d="m330.423 233.953v5.581c0 3.954-3.208 7.162-7.162 7.162h-14.556c-3.954 0-7.162-3.208-7.162-7.162v-5.581c0-3.955 3.208-7.162 7.162-7.162h14.556c3.954-.001 7.162 3.207 7.162 7.162z" fill="#334353"/><path d="m330.423 233.953v1.937c0 3.954-3.208 7.162-7.162 7.162h-14.556c-3.954 0-7.162-3.208-7.162-7.162v-1.937c0-3.955 3.208-7.162 7.162-7.162h14.556c3.954-.001 7.162 3.207 7.162 7.162z" fill="#3e4e60"/><path d="m320.482 229.381h-9.787c-2.059 0-3.728 1.669-3.728 3.728 0 2.059 1.669 3.728 3.728 3.728h9.787c2.059 0 3.728-1.669 3.728-3.728 0-2.059-1.669-3.728-3.728-3.728z" fill="#3f5d77"/></g></g></g><g id="Glasses_5_"><path d="m361.65 185.402c-12.76 0-23.141-10.381-23.141-23.141h4.792c0 10.118 8.232 18.349 18.349 18.349s18.349-8.232 18.349-18.349h4.792c0 12.76-10.381 23.141-23.141 23.141z" fill="#c3ead0"/><path d="m298.972 185.402c-12.76 0-23.141-10.381-23.141-23.141h4.792c0 10.118 8.232 18.349 18.349 18.349s18.349-8.232 18.349-18.349h4.792c0 12.76-10.381 23.141-23.141 23.141z" fill="#c3ead0"/><path d="m398.6 143.409h-16.205c-.094 0-.184.017-.275.028-.712-.643-1.532-1.182-2.466-1.551-3.84-1.516-10.081-3.322-18.004-3.322-7.924 0-14.164 1.807-18.003 3.322-3.121 1.231-5.138 4.195-5.138 7.549v2.892c-1.912-.525-4.548-.867-8.199-.867-3.446 0-6.149.293-8.197.867v-2.72c0-3.475-2.083-6.532-5.306-7.788-3.811-1.486-9.999-3.257-17.835-3.257s-14.024 1.771-17.834 3.257c-.98.382-1.839.946-2.581 1.622-.109-.015-.217-.033-.33-.033h-6.205c-1.323 0-2.396 1.073-2.396 2.396s1.073 2.396 2.396 2.396h3.934c-.077.46-.125.928-.125 1.407v12.653h4.792v-12.653c0-1.486.885-2.79 2.255-3.324 3.428-1.336 9.003-2.929 16.095-2.929s12.667 1.593 16.095 2.929c1.37.534 2.255 1.839 2.255 3.324v12.653h4.792v-4.835c.54-.323 2.502-1.174 8.197-1.174 5.501 0 7.55.79 8.199 1.149v4.86h4.792v-12.825c0-1.374.826-2.588 2.105-3.092 3.453-1.363 9.074-2.988 16.244-2.988s12.791 1.625 16.245 2.988c1.279.505 2.104 1.718 2.104 3.092v12.825h4.792v-12.825c0-.419-.032-.831-.093-1.235h13.9c1.323 0 2.396-1.073 2.396-2.396s-1.073-2.395-2.396-2.395zm-76.487 13.79v-.621l.087-.003c.008.275-.036.47-.087.624z" fill="#78c795"/></g></g><g><g><path d="m111.145 271.996 7.884 12.653c1.14 1.843 3.563 2.409 5.413 1.255l2.458-1.539 1.85-1.153c1.843-1.14 2.409-3.563 1.258-5.403l-8.472-13.596c-.148-.23-.313-.444-.505-.638-1.457-1.547-3.96-1.658-5.563-.096l-3.726 3.616c-1.323 1.288-1.577 3.328-.597 4.901z" fill="#8e4e3f"/><path d="m115.939 274.643 3.932 6.329c1.545 2.479 4.316 3.709 7.029 3.392l1.85-1.153c1.843-1.14 2.409-3.563 1.258-5.403l-8.472-13.596c-.148-.23-.313-.444-.505-.638l-4.258 4.143c-1.866 1.82-2.223 4.708-.834 6.926z" fill="#9b5b42"/></g><g><path d="m83.094 300.358 5.848 9.375c1.14 1.843 3.563 2.409 5.413 1.255l2.458-1.539 1.85-1.153c1.843-1.14 2.409-3.563 1.258-5.403l-6.436-10.318c-.148-.23-.313-.444-.505-.638-1.457-1.547-3.96-1.658-5.563-.096l-3.726 3.616c-1.323 1.289-1.577 3.329-.597 4.901z" fill="#8e4e3f"/><path d="m87.888 303.006 1.896 3.051c1.545 2.479 4.316 3.709 7.029 3.392l1.85-1.153c1.843-1.14 2.409-3.563 1.258-5.403l-6.436-10.318c-.148-.23-.313-.444-.505-.638l-4.258 4.143c-1.865 1.82-2.222 4.707-.834 6.926z" fill="#9b5b42"/></g><g><path d="m90.244 287.373 7.884 12.653c1.14 1.843 3.563 2.409 5.413 1.255l2.458-1.539 1.85-1.153c1.843-1.14 2.409-3.563 1.258-5.403l-8.472-13.596c-.148-.23-.313-.444-.505-.638-1.457-1.547-3.96-1.658-5.563-.096l-3.726 3.616c-1.323 1.289-1.577 3.329-.597 4.901z" fill="#8e4e3f"/><path d="m95.038 290.02 3.932 6.329c1.545 2.479 4.316 3.709 7.029 3.392l1.85-1.153c1.843-1.14 2.409-3.563 1.258-5.403l-8.472-13.596c-.148-.23-.313-.444-.505-.638l-4.258 4.143c-1.865 1.821-2.222 4.708-.834 6.926z" fill="#9b5b42"/></g><g><path d="m98.653 276.408 11.867 19.044c1.14 1.843 3.563 2.409 5.413 1.255l2.458-1.539 1.85-1.153c1.843-1.14 2.409-3.563 1.258-5.403l-12.455-19.988c-.148-.23-.313-.444-.505-.638-1.457-1.547-3.96-1.658-5.563-.096l-3.726 3.616c-1.323 1.289-1.577 3.329-.597 4.902z" fill="#8e4e3f"/><path d="m103.447 279.055 7.914 12.721c1.545 2.479 4.316 3.709 7.029 3.392l1.85-1.153c1.843-1.14 2.409-3.563 1.258-5.403l-12.455-19.988c-.148-.23-.313-.444-.505-.638l-4.258 4.143c-1.864 1.82-2.221 4.708-.833 6.926z" fill="#9b5b42"/></g></g><g><g><path d="m402.015 271.996-7.884 12.653c-1.14 1.843-3.563 2.409-5.413 1.255l-2.458-1.539-1.85-1.153c-1.843-1.14-2.409-3.563-1.258-5.403l8.472-13.596c.148-.23.313-.444.505-.638 1.457-1.547 3.96-1.658 5.563-.096l3.726 3.616c1.323 1.288 1.577 3.328.597 4.901z" fill="#d48d77"/><path d="m397.221 274.643-3.932 6.329c-1.545 2.479-4.316 3.709-7.029 3.392l-1.85-1.153c-1.843-1.14-2.409-3.563-1.258-5.403l8.472-13.596c.148-.23.313-.444.505-.638l4.258 4.143c1.865 1.82 2.222 4.708.834 6.926z" fill="#f5b890"/></g><g><path d="m430.065 300.358-5.848 9.375c-1.14 1.843-3.563 2.409-5.413 1.255l-2.458-1.539-1.85-1.153c-1.843-1.14-2.409-3.563-1.258-5.403l6.436-10.318c.148-.23.313-.444.505-.638 1.457-1.547 3.96-1.658 5.563-.096l3.726 3.616c1.323 1.289 1.577 3.329.597 4.901z" fill="#d48d77"/><path d="m425.271 303.006-1.896 3.051c-1.545 2.479-4.316 3.709-7.029 3.392l-1.85-1.153c-1.843-1.14-2.409-3.563-1.258-5.403l6.436-10.318c.148-.23.313-.444.505-.638l4.258 4.143c1.865 1.82 2.222 4.707.834 6.926z" fill="#f5b890"/></g><g><path d="m422.915 287.373-7.884 12.653c-1.14 1.843-3.563 2.409-5.413 1.255l-2.458-1.539-1.85-1.153c-1.843-1.14-2.409-3.563-1.258-5.403l8.472-13.596c.148-.23.313-.444.505-.638 1.457-1.547 3.96-1.658 5.563-.096l3.726 3.616c1.323 1.289 1.577 3.329.597 4.901z" fill="#d48d77"/><path d="m418.121 290.02-3.932 6.329c-1.545 2.479-4.316 3.709-7.029 3.392l-1.85-1.153c-1.843-1.14-2.409-3.563-1.258-5.403l8.472-13.596c.148-.23.313-.444.505-.638l4.258 4.143c1.865 1.821 2.222 4.708.834 6.926z" fill="#f5b890"/></g><g><path d="m414.506 276.408-11.867 19.044c-1.14 1.843-3.563 2.409-5.413 1.255l-2.458-1.539-1.85-1.153c-1.843-1.14-2.409-3.563-1.258-5.403l12.455-19.988c.148-.23.313-.444.505-.638 1.457-1.547 3.96-1.658 5.563-.096l3.726 3.616c1.323 1.289 1.577 3.329.597 4.902z" fill="#d48d77"/><path d="m409.713 279.055-7.914 12.721c-1.545 2.479-4.316 3.709-7.029 3.392l-1.85-1.153c-1.843-1.14-2.409-3.563-1.258-5.403l12.455-19.988c.148-.23.313-.444.505-.638l4.258 4.143c1.864 1.82 2.221 4.708.833 6.926z" fill="#f5b890"/></g></g></g><g><g><g><path d="m316.909 491.436-35.094-21.028c-4.35-2.606-9.328-3.981-14.402-3.981h-22.82c-5.079 0-10.056 1.375-14.407 3.981l-35.09 21.028c-9.108 5.457-20.525-1.878-19.346-12.428l1.294-11.585 5.409-48.346c2.726-24.406 23.366-42.866 47.93-42.866h51.24c24.559 0 45.199 18.46 47.925 42.866l5.409 48.351 1.294 11.58c1.178 10.55-10.235 17.885-19.342 12.428z" fill="#334353"/><path d="m316.909 491.436-35.094-21.028c-4.35-2.606-9.328-3.981-14.402-3.981h-11.413v-90.215h25.622c24.559 0 45.199 18.46 47.925 42.866l5.409 48.351 1.294 11.58c1.179 10.549-10.234 17.884-19.341 12.427z" fill="#3e4e60"/></g><g><path d="m334.956 467.428c-3.176 6.19-11.254 9.242-18.048 5.17l-32.488-19.461c-6.056-3.632-12.989-5.548-20.051-5.548h-16.74c-7.062 0-13.995 1.916-20.051 5.548l-32.483 19.461c-6.798 4.072-14.876 1.021-18.053-5.174l5.409-48.346c2.726-24.406 23.366-42.866 47.93-42.866h51.24c24.559 0 45.199 18.46 47.925 42.866z" fill="#3e4e60"/><path d="m334.956 467.428c-3.176 6.19-11.254 9.242-18.048 5.17l-32.488-19.461c-6.056-3.632-12.989-5.548-20.051-5.548h-8.369v-71.377h25.622c24.559 0 45.199 18.46 47.925 42.866z" fill="#3f5d77"/></g></g><g><path d="m237.893 414.25v4.936c0 2.275-1.842 4.117-4.117 4.117h-5.668c-2.275 0-4.117 1.842-4.117 4.112v7.037c0 2.27-1.842 4.112-4.112 4.112h-4.94c-2.27 0-4.112-1.842-4.112-4.112v-7.037c0-2.27-1.842-4.112-4.117-4.112h-5.668c-2.275 0-4.117-1.842-4.117-4.117v-4.936c0-.041 0-.086.005-.127.064-2.215 1.879-3.99 4.112-3.99h5.668c2.275 0 4.117-1.842 4.117-4.112v-4.308c0-2.27 1.842-4.112 4.112-4.112h4.94c2.27 0 4.112 1.842 4.112 4.112v4.308c0 2.27 1.842 4.112 4.117 4.112h5.668c2.234 0 4.049 1.774 4.112 3.99.005.041.005.086.005.127z" fill="#2d2c33"/><path d="m237.888 414.123c-.064 2.211-1.879 3.985-4.112 3.985h-5.668c-2.275 0-4.117 1.842-4.117 4.117v7.033c0 2.275-1.842 4.117-4.112 4.117h-4.94c-2.27 0-4.112-1.842-4.112-4.117v-7.033c0-2.275-1.842-4.117-4.117-4.117h-5.668c-2.234 0-4.049-1.774-4.112-3.985.064-2.215 1.879-3.99 4.112-3.99h5.668c2.275 0 4.117-1.842 4.117-4.112v-4.308c0-2.27 1.842-4.112 4.112-4.112h4.94c2.27 0 4.112 1.842 4.112 4.112v4.308c0 2.27 1.842 4.112 4.117 4.112h5.668c2.233 0 4.048 1.775 4.112 3.99z" fill="#334353"/><path d="m229.753 411.577h-7.682v-5.042c0-1.159-.939-2.098-2.098-2.098-1.159 0-2.098.939-2.098 2.098v5.042h-7.682c-1.159 0-2.098.939-2.098 2.098s.939 2.098 2.098 2.098h7.682v6.301c0 1.159.939 2.098 2.098 2.098 1.159 0 2.098-.939 2.098-2.098v-6.301h7.682c1.159 0 2.098-.939 2.098-2.098 0-1.158-.939-2.098-2.098-2.098z" fill="#3f5d77"/></g><g><g><path d="m301.346 400.849c0 4.26-3.457 7.716-7.717 7.716s-7.716-3.457-7.716-7.716c0-.662.083-1.303.245-1.919.85-3.332 3.874-5.793 7.471-5.793 3.598 0 6.622 2.461 7.471 5.793.163.615.246 1.256.246 1.919z" fill="#53b976"/><path d="m301.101 398.93c-.85 3.332-3.874 5.798-7.471 5.798-3.598 0-6.622-2.466-7.471-5.798.85-3.332 3.874-5.793 7.471-5.793 3.598 0 6.622 2.461 7.471 5.793z" fill="#78c795"/></g><g><path d="m301.346 435.313c0 4.26-3.457 7.716-7.717 7.716s-7.716-3.457-7.716-7.716c0-.662.083-1.303.245-1.919.85-3.332 3.874-5.793 7.471-5.793 3.598 0 6.622 2.461 7.471 5.793.163.616.246 1.257.246 1.919z" fill="#7d73ff"/><path d="m301.101 433.395c-.85 3.332-3.874 5.798-7.471 5.798-3.598 0-6.622-2.466-7.471-5.798.85-3.332 3.874-5.793 7.471-5.793 3.598 0 6.622 2.461 7.471 5.793z" fill="#b5b3ff"/></g><g><g><path d="m318.577 416.517c0 4.26-3.457 7.716-7.716 7.716s-7.716-3.457-7.716-7.716c0-.662.083-1.303.245-1.919.85-3.332 3.874-5.793 7.471-5.793s6.622 2.461 7.471 5.793c.162.615.245 1.257.245 1.919z" fill="#e9465e"/><path d="m318.332 414.598c-.85 3.332-3.874 5.798-7.471 5.798s-6.622-2.466-7.471-5.798c.85-3.332 3.874-5.793 7.471-5.793s6.621 2.461 7.471 5.793z" fill="#ee6781"/></g><g><path d="m284.111 416.517c0 4.26-3.457 7.716-7.716 7.716-4.26 0-7.716-3.457-7.716-7.716 0-.662.083-1.303.245-1.919.85-3.332 3.874-5.793 7.471-5.793 3.598 0 6.622 2.461 7.471 5.793.162.615.245 1.257.245 1.919z" fill="#ea7589"/><path d="m283.866 414.598c-.85 3.332-3.874 5.798-7.471 5.798-3.598 0-6.622-2.466-7.471-5.798.85-3.332 3.874-5.793 7.471-5.793s6.621 2.461 7.471 5.793z" fill="#ff9fb4"/></g></g></g><g><path d="m279.653 390.465c0 4.044-3.282 7.326-7.33 7.326h-32.646c-2.022 0-3.857-.819-5.184-2.146s-2.146-3.157-2.146-5.179c0-4.048 3.282-7.33 7.33-7.33h32.646c2.022 0 3.857.819 5.184 2.146 1.327 1.326 2.146 3.161 2.146 5.183z" fill="#334353"/><path d="m279.653 390.465c0 4.044-3.282 7.326-7.33 7.326h-16.323v-14.656h16.323c2.022 0 3.857.819 5.184 2.146s2.146 3.162 2.146 5.184z" fill="#3e4e60"/></g></g></g></svg>